<?xml version="1.0" encoding="utf-8"?>
<!-- Generator: Adobe Illustrator 22.0.1, SVG Export Plug-In . SVG Version: 6.00 Build 0)  -->
<svg version="1.1" id="Capa_1" xmlns="http://www.w3.org/2000/svg" xmlns:xlink="http://www.w3.org/1999/xlink" x="0px" y="0px"
	 viewBox="0 0 336.1 226.5" style="enable-background:new 0 0 336.1 226.5;" xml:space="preserve">
<style type="text/css">
	.st0{fill:url(#SVGID_1_);}
	.st1{fill:#FFFFFF;}
	.st2{fill:url(#SVGID_2_);}
	.st3{fill:url(#SVGID_3_);}
	.st4{fill:url(#SVGID_4_);}
</style>
<radialGradient id="SVGID_1_" cx="287.0382" cy="-192.5168" r="65.6112" fx="284.3878" fy="-193.3289" gradientTransform="matrix(1 0 0 1 0 190)" gradientUnits="userSpaceOnUse">
	<stop  offset="0.5" style="stop-color:#00AF3F"/>
	<stop  offset="1" style="stop-color:#004E21"/>
</radialGradient>
<path class="st0" d="M273,62.3c-3.8-1.3-6.5-4.7-6.8-8.7v-0.1c-0.3-2.3-0.5-4.6-0.5-6.8c0-10.9,3.5-21.3,10.1-30l0.1-0.1l0.1-0.1
	l0.1-0.1l0.2-0.2l0,0c5.2-6.6,12.9-10.4,21.3-10.4c5.1,0,9.9,1.4,13.9,3.9c-8-5.4-17.6-8.6-28-8.6c-11.2,0-21.6,3.7-29.9,10
	c-0.1,0.1-0.3,0.2-0.4,0.3c-0.1,0.1-0.3,0.2-0.4,0.3l0,0c-6.2,4.9-10,12.1-10,20.2c0,7.7,3.6,14.7,9.3,19.6l0,0
	C257.8,56.6,265,60.4,273,62.3z"/>
<path class="st1" d="M297.4,5.8c-8.4,0-16.1,3.8-21.3,10.4l0,0l-0.2,0.2l-0.1,0.1l-0.1,0.1l-0.1,0.1c-6.6,8.7-10.1,19.1-10.1,30
	c0,2.3,0.2,4.6,0.5,6.8v0.1c0.3,4.4,3.6,8.2,8,9h0.1c3.4,0.7,6.8,1.1,10.2,1.1c9.2,0,18.1-2.5,25.9-7.3l0,0c8.7-4.7,14-13.8,14-23.7
	C324.3,17.9,312.2,5.8,297.4,5.8z"/>
<radialGradient id="SVGID_2_" cx="299.9434" cy="-160.8381" r="26.801" gradientTransform="matrix(1 0 0 1 0 190)" gradientUnits="userSpaceOnUse">
	<stop  offset="0.681" style="stop-color:#FF6319"/>
	<stop  offset="0.7342" style="stop-color:#FB6118"/>
	<stop  offset="0.7863" style="stop-color:#EF5D16"/>
	<stop  offset="0.838" style="stop-color:#DC5513"/>
	<stop  offset="0.8894" style="stop-color:#C04A0E"/>
	<stop  offset="0.9406" style="stop-color:#9C3C09"/>
	<stop  offset="0.9911" style="stop-color:#712A01"/>
	<stop  offset="1" style="stop-color:#692700"/>
</radialGradient>
<path class="st2" d="M311.3,9.6L311.3,9.6c-4-2.4-8.8-3.9-13.9-3.9c-8.4,0-16.1,3.8-21.3,10.4l0,0c0,0-1.4,1.9-1.5,2
	c4.4-4.7,11.4-6.8,17.8-6.8c12.4,0,26.3,10.8,26.3,26.5c0,4.9-0.9,13.5-8.3,18.4c8.9-4.8,13.9-14.4,13.9-23.6
	C324.3,22.9,319.1,14.4,311.3,9.6z"/>
<g>
	
		<radialGradient id="SVGID_3_" cx="298.9132" cy="-156.8507" r="69.2009" gradientTransform="matrix(1 0 0 1 0 190)" gradientUnits="userSpaceOnUse">
		<stop  offset="0.456" style="stop-color:#0389C3"/>
		<stop  offset="0.5413" style="stop-color:#0385BD"/>
		<stop  offset="0.6528" style="stop-color:#0478AD"/>
		<stop  offset="0.7789" style="stop-color:#046492"/>
		<stop  offset="0.9148" style="stop-color:#05486C"/>
		<stop  offset="1" style="stop-color:#063451"/>
	</radialGradient>
	<path class="st3" d="M252.9,11.3L252.9,11.3C253,11.3,253,11.3,252.9,11.3L252.9,11.3c0,0-0.1,0.1-0.2,0.1
		C252.8,11.4,252.9,11.4,252.9,11.3z"/>
</g>
<g>
	<path class="st1" d="M21.6,190.9c-1.4-0.8-2.4-1.5-3-2v-22.5c0-1.3,0.6-2.6,1.7-3.7c1.2-1.1,3.2-1.7,6.2-1.7c2,0,3.6,0.4,5,1.1
		c1.4,0.7,2.5,1.8,3.3,3.1s1.4,2.9,1.7,4.8c0.4,1.8,0.5,3.8,0.5,5.9c0,5.1-0.8,9-2.5,11.9c-1.7,2.8-4.3,4.2-7.9,4.2
		C24.7,192.1,23,191.7,21.6,190.9 M23.2,152.3c-2.4,1.4-4.2,2.7-5.3,4.1c-0.4-1.8-1.5-3.1-3.1-3.9c-1.6-0.8-3.6-1.2-6-1.2
		c-0.8,0-1.5,0-2,0c-0.6,0-1.1,0.1-1.5,0.2c-0.5,0.1-0.9,0.1-1.3,0.2v73.2c0,0,14.4,1.6,14.4-7.4c0-6.9,0-19.2,0-19.2
		c0.1,0.2,0.5,0.6,1.1,1.2c0.6,0.6,1.4,1.1,2.4,1.7c1.1,0.6,2.3,1.1,3.9,1.5c1.5,0.5,3.3,0.7,5.3,0.7c2.5,0,4.9-0.4,7.4-1.3
		c2.5-0.8,4.7-2.3,6.7-4.4c2-2.1,3.6-4.9,4.9-8.5c1.3-3.6,1.9-8.1,1.9-13.6c0-4.7-0.6-8.7-1.6-12c-1.1-3.2-2.6-5.9-4.4-7.8
		c-1.8-2-3.9-3.4-6.3-4.3c-2.4-0.9-4.8-1.3-7.4-1.3C28.6,150.2,25.6,150.9,23.2,152.3"/>
	<path class="st1" d="M72.8,191.6c-1.1-1.4-1.7-3.1-1.7-5c0-1.8,0.4-3.2,1.3-4.3c0.8-1.1,1.9-2,3.3-2.8c1.3-0.7,2.9-1.2,4.6-1.5
		s3.5-0.5,5.2-0.6c0.5-0.1,1-0.1,1.5-0.1h1.5V188c0,0.6-0.3,1.2-0.8,1.9s-1.2,1.3-2.2,1.9c-0.9,0.6-2,1-3.2,1.4s-2.5,0.5-3.8,0.5
		C75.8,193.7,73.9,193,72.8,191.6 M73.4,150.9c-2.5,0.5-4.7,1.1-6.6,1.8s-3.4,1.6-4.5,2.5s-1.6,1.9-1.6,2.9c0,0.7,0.3,1.8,0.9,3.2
		c0.6,1.5,2.1,3.3,3.8,2.5c2.6-1.2,1.6-0.9,4.3-1.9c3.1-1.1,6.2-1.5,9.2-1.5c3.2,0,5.6,0.6,7,1.7c1.4,1.1,2.2,3.1,2.2,5.8v1.9H86
		c-0.8,0-1.6,0-2.5,0.1c-2.5,0.1-5.3,0.5-8.4,1c-3,0.5-5.9,1.4-8.5,2.7s-4.8,3.1-6.5,5.3c-1.7,2.3-2.6,5.2-2.6,8.8
		c0,2.9,0.5,5.3,1.5,7.3s2.3,3.6,3.8,4.8c1.5,1.2,3.3,2.1,5.2,2.6s3.8,0.8,5.7,0.8c3.7,0,6.8-0.6,9.3-1.7c2.5-1.1,4.6-2.5,6.1-4.1
		c0.4,1.8,1.2,3.3,2.5,4.2c1.3,1,3.2,1.5,5.8,1.5c1.2,0,2.3-0.1,3.4-0.3s2.3-0.6,3.6-1.1c-1.6-2.5-2.4-6.6-2.4-12.2v-19.9
		c0-3.2-0.4-6.1-1.1-8.5s-1.9-4.5-3.5-6.1c-1.7-1.6-3.8-2.8-6.5-3.6s-5.9-1.2-9.7-1.2C78.5,150.2,75.9,150.5,73.4,150.9"/>
	<path class="st1" d="M126,151.3c-2.9,0.7-5.7,2.1-8.3,4.1c-2.6,2-4.8,4.7-6.6,8c-1.8,3.4-2.7,7.8-2.7,13.1c0,5.6,0.9,10.2,2.5,13.7
		c1.7,3.5,3.8,6.2,6.4,8.2c2.5,2,5.3,3.3,8.3,4s5.7,1.1,8.3,1.1c3.8,0,7-0.4,9.4-1.3c2.5-0.8,4.4-1.8,5.7-2.7
		c0.9-0.7,1.5-1.4,1.8-2.1c0.3-0.7,0.4-1.4,0.4-2.1c0-1.1-0.4-2.5-1.2-4.1s-1.6-2.9-2.4-3.7c-0.4,0.4-0.9,0.9-1.6,1.5
		c-0.7,0.6-1.6,1.2-2.5,1.7c-1,0.5-2.1,1-3.4,1.3c-1.3,0.4-2.7,0.5-4.2,0.5c-2.4,0-4.4-0.4-6-1.3c-1.6-0.8-3-2-4-3.5
		s-1.8-3.2-2.2-5.2c-0.4-2-0.6-4.1-0.6-6.4c0-4.4,1-8.1,3-11c2-2.9,5.3-4.3,10-4.3c2.7,0,5.1,0.6,7.3,1.8s3.9,2.4,5,3.6
		c1-1.2,1.8-2.5,2.4-4c0.6-1.5,1-2.7,1-3.7c0-1.1-0.3-2-0.8-2.8s-1.5-1.6-2.8-2.4c-1.6-1.1-3.7-1.9-6.1-2.5c-2.5-0.6-5.2-1-8.1-1
		C131.5,150.2,128.9,150.6,126,151.3"/>
	<path class="st1" d="M159.5,151.4c-1.1,0.1-1.6,0.2-1.6,0.3v42.4c0,1.8,0.2,3.2,0.7,4.3s1.1,2,1.9,2.7c0.8,0.7,1.8,1.1,2.9,1.4
		c1.1,0.2,2.4,0.4,3.8,0.4c1.1,0,2.2,0,3.2-0.1s1.6-0.2,1.9-0.3v-42.8c0-1.8-0.3-3.2-0.8-4.3c-0.6-1.1-1.3-1.9-2.2-2.5
		s-1.9-1-3.1-1.2c-1.1-0.2-2.3-0.3-3.4-0.3C161.6,151.3,160.5,151.3,159.5,151.4"/>
	<path class="st1" d="M191.3,129.8c-3.9,2.6-6.4,6.3-7.4,11.1c-0.4,2.3-0.6,4.8-0.6,7.5v54c0,0,14.4,1.2,14.4-8.4
		c0-8.7,0-31.8,0-31.8s-3.8,0,3.6,0c12.3,0,13-9.2,13-9.2v41c0,1.8,0.3,3.2,0.8,4.3c0.6,1.1,1.3,2,2.2,2.7s1.9,1.1,3.1,1.4
		c1.1,0.2,2.3,0.4,3.4,0.4c1.1,0,2.2-0.1,3.3-0.2c1.1-0.1,1.6-0.2,1.6-0.3v-51.1h-30.9v-3.5c0-4.2,0.9-7,2.7-8.5s4.4-2.3,7.8-2.3
		c3,0,5.7,0.5,8.1,1.4c2.4,1,4.3,2,5.5,3.2c1-1.1,1.8-2.4,2.5-3.9s1.1-2.8,1.1-4c0-2-1.3-3.6-3.8-5c-1.8-1-4.1-1.7-6.8-2.2
		s-5.4-0.7-8.1-0.7C200.3,125.9,195.2,127.2,191.3,129.8"/>
	<path class="st1" d="M253.4,151.3c-2.9,0.7-5.7,2.1-8.3,4.1s-4.8,4.7-6.6,8c-1.8,3.4-2.6,7.8-2.6,13.1c0,5.6,0.8,10.2,2.5,13.7
		s3.8,6.2,6.4,8.2c2.5,2,5.3,3.3,8.3,4s5.7,1.1,8.3,1.1c3.8,0,7-0.4,9.4-1.3c2.5-0.8,4.4-1.8,5.7-2.7c0.9-0.7,1.5-1.4,1.8-2.1
		c0.3-0.7,0.4-1.4,0.4-2.1c0-1.1-0.4-2.5-1.2-4.1c-0.8-1.6-1.6-2.9-2.4-3.7c-0.4,0.4-0.9,0.9-1.6,1.5s-1.6,1.2-2.5,1.7
		c-1,0.5-2.1,1-3.4,1.3c-1.3,0.4-2.7,0.5-4.2,0.5c-2.4,0-4.4-0.4-6-1.3c-1.6-0.8-3-2-4-3.5s-1.7-3.2-2.2-5.2c-0.4-2-0.6-4.1-0.6-6.4
		c0-4.4,1-8.1,3-11s5.3-4.3,10-4.3c2.7,0,5.1,0.6,7.3,1.8c2.2,1.2,3.8,2.4,5,3.6c1-1.2,1.8-2.5,2.4-4s1-2.7,1-3.7
		c0-1.1-0.3-2-0.8-2.8s-1.5-1.6-2.8-2.4c-1.6-1.1-3.7-1.9-6.1-2.5c-2.5-0.6-5.2-1-8.1-1C259,150.2,256.4,150.6,253.4,151.3"/>
	<path class="st1" d="M303,191.2c-1.4-0.9-2.5-2.1-3.2-3.6c-0.8-1.5-1.3-3.2-1.6-5.1c-0.3-1.9-0.5-3.8-0.5-5.7s0.2-3.8,0.5-5.6
		c0.4-1.8,0.9-3.5,1.7-4.9c0.8-1.5,1.9-2.6,3.3-3.5s3.1-1.4,5.1-1.4s3.7,0.4,5.1,1.3c1.3,0.9,2.4,2,3.2,3.4c0.8,1.4,1.3,3.1,1.6,4.9
		c0.3,1.9,0.4,3.8,0.4,5.7c0,2-0.1,3.9-0.4,5.8c-0.3,1.9-0.8,3.6-1.6,5.1c-0.8,1.5-1.9,2.7-3.2,3.6c-1.4,0.9-3.1,1.4-5.2,1.4
		C306.1,192.6,304.4,192.1,303,191.2 M297.4,152.3c-3.2,1.4-5.8,3.3-7.9,5.8c-2.1,2.4-3.6,5.3-4.7,8.5s-1.6,6.6-1.6,10.2
		c0,3.5,0.5,6.9,1.4,10.1c0.9,3.2,2.4,6,4.3,8.5c2,2.4,4.5,4.4,7.7,5.8c3.1,1.5,7,2.2,11.5,2.2s8.4-0.7,11.5-2.2
		c3.2-1.5,5.8-3.5,7.8-5.9c2-2.5,3.5-5.3,4.3-8.6c0.9-3.2,1.3-6.6,1.3-10.2c0-3.5-0.4-6.9-1.3-10.1c-0.9-3.2-2.3-6-4.2-8.4
		c-1.9-2.4-4.5-4.3-7.6-5.7s-6.9-2.1-11.4-2.1C304.3,150.2,300.6,150.9,297.4,152.3"/>
	<path class="st1" d="M168,127.1c-2.5,0-4.8,1.1-6.4,3.1l0,0v0.1l0,0l0,0l0,0c-2,2.6-3,5.7-3,9c0,0.7,0,1.4,0.1,2.1l0,0
		c0.1,1.3,1.1,2.5,2.4,2.7l0,0c1,0.2,2,0.3,3.1,0.3c2.8,0,5.5-0.8,7.8-2.2l0,0c2.6-1.4,4.2-4.2,4.2-7.1
		C176.1,130.8,172.5,127.1,168,127.1z"/>
</g>
<radialGradient id="SVGID_4_" cx="298.834" cy="-156.8092" r="69.1284" gradientTransform="matrix(1 0 0 1 0 190)" gradientUnits="userSpaceOnUse">
	<stop  offset="0.456" style="stop-color:#0075B0"/>
	<stop  offset="0.5919" style="stop-color:#0073AD"/>
	<stop  offset="0.6994" style="stop-color:#006CA3"/>
	<stop  offset="0.7972" style="stop-color:#006092"/>
	<stop  offset="0.8892" style="stop-color:#004F7B"/>
	<stop  offset="0.9764" style="stop-color:#003A5D"/>
	<stop  offset="1" style="stop-color:#003353"/>
</radialGradient>
<path class="st4" d="M316,13.3c5.1,4.9,8.3,11.8,8.3,19.4c0,0.6,0,1.2-0.1,1.8c0,0.2,0,0.4-0.1,0.6c0,0.4-0.1,0.8-0.1,1.2
	c0,0.2-0.1,0.5-0.1,0.7c-0.1,0.3-0.1,0.7-0.2,1c0,0.2-0.1,0.5-0.2,0.7c-0.1,0.3-0.1,0.6-0.2,1c-0.1,0.3-0.1,0.5-0.2,0.8
	s-0.2,0.6-0.3,0.9c-0.1,0.3-0.2,0.5-0.3,0.8c-0.1,0.3-0.2,0.6-0.3,0.9c-0.1,0.3-0.2,0.5-0.3,0.7c-0.1,0.3-0.3,0.6-0.4,0.8
	s-0.2,0.5-0.4,0.7c-0.1,0.3-0.3,0.5-0.4,0.8c-0.1,0.2-0.3,0.5-0.4,0.7c-0.2,0.3-0.3,0.5-0.5,0.8c-0.2,0.2-0.3,0.5-0.5,0.7
	s-0.3,0.5-0.5,0.7s-0.3,0.5-0.5,0.7s-0.4,0.4-0.6,0.7c-0.2,0.2-0.4,0.4-0.6,0.6c-0.2,0.2-0.4,0.4-0.6,0.6c-0.2,0.2-0.4,0.4-0.6,0.6
	c-0.2,0.2-0.4,0.4-0.7,0.6c-0.2,0.2-0.4,0.4-0.6,0.6c-0.2,0.2-0.5,0.4-0.7,0.6c-0.2,0.2-0.4,0.4-0.7,0.5c-0.5,0.3-0.9,0.7-1.4,1
	s-1.1,0.7-1.6,1l0,0c-7.8,4.7-16.7,7.3-25.9,7.3c-3.4,0-6.8-0.4-10.2-1.1H274c-0.4-0.1-0.8-0.2-1.1-0.3l0,0c-0.5-0.1-1-0.2-1.5-0.4
	c-0.2,0-0.3-0.1-0.5-0.1c-0.4-0.1-0.9-0.3-1.3-0.4c-0.2-0.1-0.5-0.1-0.7-0.2c-0.4-0.1-0.8-0.3-1.2-0.4c-0.2-0.1-0.4-0.1-0.6-0.2
	c-0.5-0.2-1.1-0.4-1.6-0.6c-0.2-0.1-0.5-0.2-0.7-0.3c-0.3-0.1-0.7-0.3-1-0.4c-0.2-0.1-0.5-0.2-0.7-0.3c-0.4-0.2-0.8-0.4-1.3-0.6
	c-0.3-0.1-0.6-0.3-0.9-0.4c-0.3-0.2-0.7-0.3-1-0.5c-0.2-0.1-0.5-0.3-0.7-0.4c-0.3-0.2-0.6-0.3-0.9-0.5c-0.2-0.1-0.5-0.3-0.7-0.4
	c-0.5-0.3-0.9-0.6-1.3-0.9c-0.2-0.2-0.5-0.3-0.7-0.5c-0.3-0.2-0.5-0.4-0.8-0.5c-0.2-0.2-0.5-0.4-0.7-0.5c-0.3-0.2-0.6-0.4-0.8-0.6
	c-0.2-0.1-0.4-0.3-0.5-0.4l0,0c-0.4-0.3-0.7-0.6-1.1-0.9l0,0l0,0c-0.2-0.2-0.4-0.3-0.5-0.5c-0.2-0.2-0.4-0.3-0.5-0.5
	c-0.2-0.2-0.4-0.3-0.5-0.5c-0.2-0.2-0.3-0.3-0.5-0.5s-0.3-0.4-0.5-0.5c-0.2-0.2-0.3-0.3-0.5-0.5s-0.3-0.4-0.5-0.6
	c-0.1-0.2-0.3-0.4-0.4-0.5c-0.1-0.2-0.3-0.4-0.4-0.6c-0.1-0.2-0.3-0.4-0.4-0.6c-0.1-0.2-0.3-0.4-0.4-0.6c-0.1-0.2-0.3-0.4-0.4-0.6
	c-0.1-0.2-0.2-0.4-0.4-0.6c-0.1-0.2-0.2-0.4-0.4-0.6c-0.1-0.2-0.2-0.4-0.3-0.6c-0.1-0.2-0.2-0.4-0.3-0.7c-0.1-0.2-0.2-0.4-0.3-0.6
	c-0.1-0.2-0.2-0.5-0.3-0.7s-0.2-0.4-0.2-0.6c-0.1-0.2-0.2-0.5-0.2-0.7c-0.1-0.2-0.1-0.4-0.2-0.6c-0.1-0.2-0.1-0.5-0.2-0.8
	c-0.1-0.2-0.1-0.4-0.2-0.6c-0.1-0.3-0.1-0.5-0.2-0.8c0-0.2-0.1-0.4-0.1-0.6c-0.1-0.3-0.1-0.6-0.1-0.9c0-0.2-0.1-0.4-0.1-0.6
	c0-0.3-0.1-0.6-0.1-1c0-0.2,0-0.3,0-0.5c0-0.5,0-1,0-1.5s0-1,0-1.5c0-0.2,0-0.4,0-0.5c0-0.3,0-0.6,0.1-1c0-0.2,0.1-0.4,0.1-0.7
	c0-0.3,0.1-0.5,0.1-0.8c0-0.2,0.1-0.5,0.1-0.7c0.1-0.2,0.1-0.5,0.2-0.7c0.1-0.2,0.1-0.5,0.2-0.7c0.1-0.2,0.1-0.5,0.2-0.7
	c0.1-0.3,0.2-0.5,0.3-0.8c0.1-0.2,0.1-0.4,0.2-0.6c0.1-0.3,0.2-0.5,0.3-0.8c0.1-0.2,0.2-0.4,0.2-0.6c0.1-0.3,0.2-0.5,0.4-0.8
	c0.1-0.2,0.2-0.3,0.3-0.5c0.1-0.3,0.3-0.5,0.4-0.8c0.1-0.2,0.2-0.3,0.3-0.5c0.2-0.3,0.3-0.5,0.5-0.8c0.1-0.1,0.2-0.3,0.3-0.4
	c0.2-0.3,0.4-0.5,0.5-0.8c0.1-0.1,0.2-0.3,0.3-0.4c0.2-0.3,0.4-0.5,0.6-0.8c0.1-0.1,0.2-0.3,0.3-0.4c0.2-0.3,0.4-0.5,0.7-0.8
	c0.1-0.1,0.2-0.2,0.3-0.3c0.2-0.2,0.5-0.5,0.7-0.7c0.1-0.1,0.2-0.2,0.3-0.3c0.2-0.2,0.5-0.5,0.7-0.7c0.1-0.1,0.2-0.2,0.3-0.3
	c0.3-0.2,0.5-0.4,0.8-0.7c0.1-0.1,0.2-0.1,0.2-0.2l0,0c-11.6,9.1-19,23.2-19,39.1c0,27.5,22.3,49.8,49.8,49.8s49.8-22.3,49.8-49.8
	C333.1,35.8,326.5,22.4,316,13.3z"/>
</svg>
